<?xml version="1.0" standalone="no"?>
<!DOCTYPE svg PUBLIC "-//W3C//DTD SVG 20010904//EN"
 "http://www.w3.org/TR/2001/REC-SVG-20010904/DTD/svg10.dtd">
<svg version="1.0" xmlns="http://www.w3.org/2000/svg"
 width="400.000000pt" height="400.000000pt" viewBox="0 0 400.000000 400.000000"
 preserveAspectRatio="xMidYMid meet">
<metadata>
Created by potrace 1.14, written by Peter Selinger 2001-2017
</metadata>
<g transform="translate(0.000000,400.000000) scale(0.100000,-0.100000)"
fill="#000000" stroke="none">
<path d="M2060 2865 c-7 -8 -9 -15 -5 -15 5 0 -3 -9 -16 -21 -13 -12 -23 -26
-21 -31 1 -5 -2 -7 -8 -3 -5 3 -10 2 -10 -4 0 -9 -65 5 -130 29 -56 21 -185
17 -240 -7 -8 -3 -22 -7 -30 -9 -8 -2 -16 -8 -18 -14 -2 -5 -7 -8 -12 -5 -5 3
-14 -1 -22 -8 -7 -7 -17 -14 -23 -15 -5 -1 -19 -10 -30 -19 -11 -9 -20 -16
-20 -15 0 1 -10 -1 -22 -4 -13 -4 -23 -11 -23 -16 0 -5 -4 -7 -8 -4 -5 3 -18
-2 -28 -12 -11 -9 -25 -18 -32 -20 -41 -8 -166 -120 -165 -148 0 -5 -6 -13
-14 -19 -7 -5 -15 -20 -17 -32 -3 -12 -9 -30 -15 -41 -6 -11 -7 -22 -3 -26 3
-4 1 -10 -6 -15 -6 -4 -14 -20 -16 -37 -2 -16 -8 -40 -12 -54 -4 -14 -6 -27
-5 -29 2 -2 -2 -7 -8 -10 -6 -4 -6 -12 -2 -20 7 -11 13 -9 30 8 11 11 22 21
24 21 20 3 47 14 47 21 0 5 3 8 8 7 6 -2 37 3 102 18 30 6 90 12 90 9 0 -2 -7
-16 -15 -31 -8 -16 -15 -36 -15 -45 0 -8 -16 -29 -35 -46 -34 -30 -47 -73 -23
-73 6 0 8 -3 5 -6 -4 -4 2 -19 13 -34 23 -33 27 -105 6 -117 -15 -9 -36 -46
-36 -63 0 -6 17 -29 39 -53 47 -52 57 -90 36 -141 -14 -33 -14 -41 -2 -60 8
-12 30 -30 50 -40 46 -25 67 -62 60 -108 -3 -28 0 -41 16 -57 18 -18 50 -27
65 -18 3 1 20 -13 39 -31 18 -18 37 -29 42 -25 4 5 5 2 1 -4 -4 -7 -2 -13 3
-13 6 0 11 -7 11 -15 0 -26 46 -65 70 -60 12 2 33 -3 46 -11 12 -9 27 -13 33
-10 5 3 11 2 13 -3 6 -18 121 -42 188 -40 70 2 131 16 195 44 22 10 53 19 69
21 34 5 53 18 62 46 10 32 75 87 116 98 53 15 71 36 64 74 -9 41 17 88 62 112
19 10 41 28 49 40 12 19 12 27 -2 60 -21 51 -11 89 37 142 33 36 39 48 33 70
-4 15 -15 35 -26 45 -26 25 -24 74 6 122 32 53 31 71 -7 107 -36 33 -59 85
-63 138 -3 59 -14 78 -48 86 -38 8 -126 82 -127 106 0 18 -33 33 -65 29 -11
-1 -40 5 -65 14 -25 9 -85 19 -135 21 -49 3 -93 8 -97 10 -4 3 -3 14 2 25 6
10 8 19 4 19 -4 0 1 9 11 20 10 11 15 20 10 20 -4 0 5 10 21 22 39 30 64 58
64 73 0 17 -55 67 -64 58 -4 -5 -6 -1 -4 7 2 8 -3 14 -9 13 -7 -2 -13 2 -13 7
0 15 -16 12 -30 -5z m-98 -202 c4 -55 1 -60 -37 -63 -45 -3 -92 1 -77 7 6 2
12 8 12 13 0 12 73 85 87 86 6 0 13 -18 15 -43z"/>
</g>
</svg>
