<?xml version="1.0" standalone="no"?>
<!DOCTYPE svg PUBLIC "-//W3C//DTD SVG 20010904//EN"
 "http://www.w3.org/TR/2001/REC-SVG-20010904/DTD/svg10.dtd">
<svg version="1.0" xmlns="http://www.w3.org/2000/svg"
 width="817.000000pt" height="817.000000pt" viewBox="0 0 817.000000 817.000000"
 preserveAspectRatio="xMidYMid meet">
<metadata>
Created by potrace 1.14, written by Peter Selinger 2001-2017
</metadata>
<g transform="translate(0.000000,817.000000) scale(0.100000,-0.100000)"
fill="#000000" stroke="none">
<path d="M3255 8156 c-43 -19 -92 -79 -106 -128 -8 -31 -8 -60 0 -107 5 -35 8
-67 6 -71 -2 -3 -28 -4 -57 -1 -96 11 -418 1 -498 -14 -8 -2 -44 -6 -80 -10
-36 -4 -68 -9 -71 -11 -4 -2 -24 -6 -45 -9 -90 -13 -402 -101 -439 -123 -5 -4
-15 -7 -20 -8 -21 -3 -230 -105 -308 -150 -312 -180 -598 -453 -800 -764 -226
-349 -400 -821 -483 -1310 -4 -25 -8 -47 -9 -50 -1 -3 -5 -30 -9 -60 -4 -30
-9 -66 -11 -80 -10 -64 -16 -119 -30 -255 -15 -146 -19 -271 -19 -570 -1 -334
6 -511 33 -883 1 -19 31 -8 119 44 40 24 76 44 78 44 7 0 337 190 414 238 142
89 202 124 206 120 2 -3 -20 -36 -49 -74 -92 -119 -222 -359 -230 -425 -5 -43
14 -110 42 -144 42 -54 212 -161 351 -221 98 -43 103 -47 120 -99 19 -61 104
-272 139 -348 17 -37 31 -74 31 -81 0 -8 -13 -54 -29 -103 -139 -427 -17 -619
396 -624 60 -1 108 -6 116 -13 7 -6 45 -49 83 -96 38 -47 79 -96 91 -110 61
-71 103 -126 103 -135 1 -5 3 -57 5 -115 3 -92 8 -129 29 -225 12 -60 42 -148
69 -204 52 -111 108 -152 210 -153 98 -2 145 10 285 71 43 19 77 28 89 24 10
-4 43 -29 75 -57 31 -28 94 -71 140 -96 89 -49 98 -61 113 -160 8 -54 59 -198
87 -247 36 -62 95 -137 125 -159 123 -89 322 -48 531 108 40 30 45 31 75 19
18 -7 63 -22 101 -33 39 -10 79 -27 91 -36 174 -138 242 -179 373 -226 118
-42 191 -31 259 39 48 49 69 58 137 55 212 -8 301 15 571 148 219 108 253 119
445 152 185 31 242 63 255 140 6 34 102 285 133 345 8 17 39 62 70 100 30 39
56 71 58 73 1 2 57 4 125 6 133 4 153 7 237 36 109 38 169 101 196 205 23 88
15 244 -19 370 -15 55 -29 111 -30 124 -3 19 96 262 133 329 4 7 40 24 80 38
157 52 300 141 334 207 62 120 1 398 -128 576 -41 58 -42 74 -16 171 24 91 30
127 38 250 6 106 7 107 101 165 239 147 296 391 138 600 -34 45 -117 127 -158
155 -46 31 -64 63 -76 136 -6 32 -12 70 -15 84 -3 13 -8 42 -12 65 -3 22 -14
83 -24 135 -10 53 -18 103 -16 112 1 10 28 52 59 94 95 126 177 319 178 415 1
26 -7 63 -16 83 -36 75 -245 207 -430 271 -94 33 -112 46 -121 89 -3 17 -11
37 -18 45 -6 8 -10 16 -8 18 5 7 -30 79 -63 124 -40 56 -42 71 -16 132 53 124
77 278 59 378 -28 152 -136 258 -296 289 -80 16 -222 7 -322 -19 -41 -11 -84
-21 -94 -21 -11 0 -56 24 -100 54 -45 29 -100 64 -123 77 -47 27 -67 56 -78
114 -4 22 -6 41 -6 42 3 9 -63 173 -83 207 -96 164 -248 175 -551 39 -44 -20
-94 -36 -111 -35 -18 1 -86 15 -151 31 -144 36 -329 75 -408 86 -23 3 -52 7
-65 10 -102 20 -428 28 -520 13 -109 -18 -113 -19 -211 -42 -65 -16 -174 -53
-228 -77 -35 -16 -65 -28 -66 -27 -3 4 -56 225 -62 258 -2 14 -8 39 -13 55 -5
17 -32 127 -60 245 -28 118 -56 229 -62 247 -16 46 -57 90 -98 106 -46 18
-128 20 -165 3z"/>
</g>
</svg>
